<svg width="64" height="64" viewBox="0 0 64 64" fill="none" xmlns="http://www.w3.org/2000/svg">
<path fill-rule="evenodd" clip-rule="evenodd" d="M32.7906 14.4996C29.8987 14.2801 26.9024 14.9015 24.3327 16.1923C21.2891 17.7214 18.4727 20.0847 16.7369 23.0791C14.995 26.0845 14.1564 29.7373 14.5589 33.2039C15.0402 37.3482 16.792 41.7047 20.0039 44.6328C23.4586 47.7822 28.4306 49.8343 33.2172 49.5098C38.0753 49.1805 42.7315 46.4031 45.7861 42.815C48.3758 39.7731 49.5185 35.6361 49.5431 31.797C49.5592 27.454 48.5552 22.4748 45.3006 19.1397C42.0605 15.8197 37.0801 14.8292 32.7906 14.5041V14.4996ZM32.6091 16.7818C36.6562 17.0887 41.0696 18.1057 43.6217 20.721C46.2201 23.3833 47.2346 27.811 47.2199 31.7836C47.1981 35.1755 46.1361 38.8452 44.0074 41.3457C41.3311 44.4894 37.0978 46.9534 33.0538 47.2276C29.0693 47.4977 24.5785 45.6889 21.583 42.958C18.9172 40.5277 17.2924 36.6348 16.8639 32.9448C16.5249 30.0248 17.2572 26.7873 18.7515 24.209C20.2069 21.698 22.693 19.5817 25.3854 18.2289C27.5671 17.1331 30.1823 16.5977 32.6091 16.7818Z" fill="#1188EE"/>
<path fill-rule="evenodd" clip-rule="evenodd" d="M34.2154 0.0602358C25.5583 -0.526295 16.4134 3.22429 10.1121 8.96589C4.30629 14.2561 1.06225 22.2468 0.179506 29.8452C-0.550376 36.1276 0.979536 42.8236 4.14983 48.2904C7.29424 53.7121 12.4506 58.0454 18.0256 60.8448C22.6922 63.1879 28.1686 64.3189 33.4077 63.9219C41.3762 63.3183 50.4985 61.4441 56.295 55.5077C62.1332 49.529 64.0292 40.3999 63.9997 32.3909C63.9565 25.3637 61.8427 17.7871 57.1707 12.3021C51.5867 5.74645 43.0021 0.66052 34.2154 0.0648416V0.0602358ZM34.0566 2.33811C42.0296 2.87868 50.182 7.65565 55.3875 13.767C59.5985 18.7108 61.636 25.8206 61.6765 32.3998C61.7046 40.0384 59.8023 48.6158 54.6206 53.9222C49.5124 59.1539 40.9524 61.0588 33.2262 61.6442C28.4519 62.006 23.3614 60.9565 19.0828 58.8082C13.859 56.1854 9.03289 52.0941 6.16902 47.156C3.24647 42.1164 1.82273 35.8399 2.4891 30.1042C3.31902 22.9604 6.43157 15.4378 11.6912 10.6452C17.5333 5.32202 26.2013 1.80578 34.0566 2.33811Z" fill="#1188EE"/>
<path fill-rule="evenodd" clip-rule="evenodd" d="M18.6018 4.20056L16.5962 5.35729L24.1467 18.0769L26.1522 16.9202L18.6018 4.20056Z" fill="#1188EE"/>
<path fill-rule="evenodd" clip-rule="evenodd" d="M46.8342 4.86155L38.8482 16.7237L40.7812 17.9876L48.7672 6.12547L46.8342 4.86155Z" fill="#1188EE"/>
<path fill-rule="evenodd" clip-rule="evenodd" d="M57.511 15.232L45.895 22.092L47.0929 24.0526L58.7089 17.1926L57.511 15.232Z" fill="#1188EE"/>
<path fill-rule="evenodd" clip-rule="evenodd" d="M47.5239 37.6655L46.3351 39.6306L59.984 47.6339L61.1728 45.6688L47.5239 37.6655Z" fill="#1188EE"/>
<path fill-rule="evenodd" clip-rule="evenodd" d="M42.2151 44.981L40.028 45.7537L45.2552 60.0454L47.4423 59.2727L42.2151 44.981Z" fill="#1188EE"/>
<path fill-rule="evenodd" clip-rule="evenodd" d="M22.8399 45.7939L15.5798 58.0847L17.5854 59.2325L24.8454 46.9417L22.8399 45.7939Z" fill="#1188EE"/>
<path fill-rule="evenodd" clip-rule="evenodd" d="M17.4674 38.3667L4.5446 45.5125L5.67897 47.5089L18.6018 40.363L17.4674 38.3667Z" fill="#1188EE"/>
<path fill-rule="evenodd" clip-rule="evenodd" d="M5.72435 15.8706L4.6172 17.8804L16.6688 24.3117L17.776 22.3019L5.72435 15.8706Z" fill="#1188EE"/>
<path fill-rule="evenodd" clip-rule="evenodd" d="M7.53482 19.9215C7.40293 19.9167 7.2733 19.9564 7.16728 20.0338L2.30306 23.4638C2.17789 23.5526 2.0937 23.6868 2.06901 23.8367C2.04432 23.9866 2.08116 24.14 2.17142 24.2632C2.26167 24.3864 2.39796 24.4692 2.55029 24.4935C2.70262 24.5178 2.85852 24.4816 2.98369 24.3927L7.84791 20.9627C7.94829 20.8941 8.02414 20.7962 8.06467 20.6827C8.1052 20.5693 8.10835 20.4461 8.07367 20.3308C8.03899 20.2154 7.96825 20.1139 7.87151 20.0405C7.77476 19.967 7.65695 19.9253 7.53482 19.9215Z" fill="#1188EE"/>
<path fill-rule="evenodd" clip-rule="evenodd" d="M8.31981 21.7079C8.16829 21.7053 8.02174 21.7611 7.91143 21.8634L1.45001 27.723C1.39369 27.774 1.34813 27.8355 1.31594 27.9038C1.28375 27.9722 1.26555 28.046 1.26239 28.1213C1.25923 28.1966 1.27116 28.2716 1.29751 28.3424C1.32386 28.4131 1.36411 28.4781 1.41595 28.5336C1.4678 28.589 1.53023 28.6339 1.59968 28.6656C1.66913 28.6973 1.74424 28.715 1.82072 28.7181C1.8972 28.7212 1.97355 28.7094 2.04541 28.6835C2.11727 28.6575 2.18324 28.6178 2.23954 28.5668L8.70096 22.7072C8.78922 22.6305 8.85174 22.5296 8.88023 22.4172C8.90873 22.3048 8.90186 22.1862 8.86053 22.0777C8.8192 21.9693 8.74536 21.8757 8.6488 21.8095C8.55224 21.7432 8.43751 21.7085 8.31981 21.7079Z" fill="#1188EE"/>
<path fill-rule="evenodd" clip-rule="evenodd" d="M9.21824 24.2091C9.08841 24.2179 8.96537 24.2694 8.86885 24.3553L0.519819 31.5729C0.459123 31.6212 0.408941 31.6809 0.372272 31.7488C0.335603 31.8166 0.313198 31.8911 0.306396 31.9676C0.299594 32.0441 0.308534 32.1212 0.332683 32.1943C0.356832 32.2673 0.395695 32.3348 0.446948 32.3927C0.498202 32.4507 0.560796 32.4979 0.630991 32.5315C0.701186 32.5651 0.777542 32.5845 0.855497 32.5884C0.933453 32.5923 1.01141 32.5808 1.08471 32.5543C1.15801 32.5279 1.22515 32.4871 1.28212 32.4346L9.63569 25.2176C9.73046 25.1399 9.79766 25.0344 9.82757 24.9167C9.85748 24.7989 9.84854 24.6749 9.80204 24.5624C9.75555 24.45 9.67391 24.3551 9.56896 24.2914C9.464 24.2277 9.34117 24.1995 9.21824 24.2091Z" fill="#1188EE"/>
<path fill-rule="evenodd" clip-rule="evenodd" d="M9.70375 26.9958C9.55287 26.992 9.40641 27.0459 9.29537 27.1466L1.09155 34.4353C0.977254 34.5372 0.908753 34.6798 0.901109 34.8314C0.893466 34.983 0.947305 35.1312 1.05079 35.2437C1.15427 35.3562 1.29892 35.4237 1.45292 35.4313C1.60692 35.4388 1.75767 35.3857 1.872 35.2839L10.0758 27.9951C10.1636 27.919 10.2259 27.8186 10.2547 27.7071C10.2834 27.5955 10.2773 27.478 10.2371 27.3699C10.1969 27.2618 10.1245 27.1683 10.0293 27.1013C9.93416 27.0344 9.82068 26.9982 9.70375 26.9958Z" fill="#1188EE"/>
<path fill-rule="evenodd" clip-rule="evenodd" d="M10.5296 29.7827C10.4003 29.7903 10.2773 29.8402 10.1802 29.9245L1.32296 37.4276C1.26344 37.4761 1.21434 37.5356 1.17853 37.6029C1.14272 37.6703 1.12091 37.744 1.1144 37.8198C1.10788 37.8956 1.11678 37.9719 1.14057 38.0442C1.16437 38.1166 1.20258 38.1834 1.25297 38.241C1.30336 38.2986 1.36492 38.3458 1.43405 38.3797C1.50318 38.4137 1.57849 38.4337 1.65557 38.4386C1.73264 38.4436 1.80995 38.4333 1.88295 38.4085C1.95595 38.3837 2.02319 38.3448 2.08072 38.2941L10.938 30.7909C11.0319 30.7137 11.0986 30.6093 11.1286 30.4925C11.1586 30.3758 11.1504 30.2527 11.1051 30.1408C11.0599 30.0289 10.9798 29.9337 10.8765 29.8692C10.7731 29.8047 10.6517 29.7752 10.5296 29.7827Z" fill="#1188EE"/>
<path fill-rule="evenodd" clip-rule="evenodd" d="M11.546 32.9983C11.4151 33.0049 11.2904 33.0549 11.1921 33.1401L2.26223 40.7147C2.14552 40.8142 2.07376 40.9553 2.06271 41.1069C2.05166 41.2585 2.10224 41.4079 2.20332 41.5228C2.30439 41.6377 2.44769 41.7084 2.6017 41.7193C2.7557 41.7302 2.90779 41.6806 3.02453 41.5811L11.9544 34.0065C12.0483 33.9293 12.115 33.8246 12.145 33.7079C12.175 33.5911 12.1668 33.4681 12.1215 33.3562C12.0763 33.2443 11.9962 33.1493 11.8929 33.0848C11.7895 33.0204 11.6681 32.9909 11.546 32.9983Z" fill="#1188EE"/>
<path fill-rule="evenodd" clip-rule="evenodd" d="M12.2085 36.5713C12.0779 36.5772 11.9532 36.6262 11.8545 36.7105L3.3603 43.7135C3.30161 43.7616 3.25311 43.8208 3.21758 43.8874C3.18205 43.9539 3.16019 44.0266 3.15324 44.1015C3.14629 44.1763 3.15439 44.2516 3.17707 44.3234C3.19976 44.3952 3.23658 44.4619 3.28545 44.5196C3.33431 44.5774 3.39426 44.6253 3.46187 44.6603C3.52948 44.6953 3.60342 44.7166 3.67947 44.7234C3.75553 44.7302 3.8322 44.7223 3.90512 44.6999C3.97804 44.6776 4.04577 44.6414 4.10446 44.5933L12.5987 37.5904C12.6948 37.515 12.7642 37.4117 12.7968 37.2951C12.8294 37.1784 12.8237 37.0546 12.7803 36.9414C12.7369 36.8282 12.6582 36.7314 12.5554 36.665C12.4527 36.5987 12.3312 36.5654 12.2085 36.5713Z" fill="#1188EE"/>
</svg>
