<svg width="64" height="64" viewBox="0 0 64 64" fill="none" xmlns="http://www.w3.org/2000/svg">
<path fill-rule="evenodd" clip-rule="evenodd" d="M31.8525 14.2201C28.3845 14.1876 24.912 14.3978 21.5031 14.8889C17.3853 15.4809 12.9821 16.3961 9.3626 18.593C6.47328 20.3469 4.38957 22.9081 2.84577 25.4847C1.25046 28.1471 0.19143 31.1532 0.0388255 34.1966C-0.178889 38.5046 0.487252 43.1153 2.84577 47.0656C6.53366 53.2425 12.2868 59.1929 19.766 62.1824C25.3573 64.4174 32.031 64.3821 37.8541 63.2026C44.8042 61.7949 51.6438 58.5848 56.4133 53.9234C60.552 49.8784 62.7121 44.4651 63.6221 39.2807C64.358 35.0881 64.1011 30.5079 62.1205 26.5049C60.517 23.2642 57.6022 20.5141 54.2885 18.5803C50.6369 16.4497 46.254 15.617 42.1725 15.0244C38.7813 14.532 35.3206 14.2533 31.8525 14.2201ZM31.8231 16.3875C35.1537 16.42 38.4876 16.6877 41.7554 17.1622C45.7375 17.7404 49.7585 18.5539 52.8801 20.3752C55.8397 22.1024 58.4393 24.5873 59.8091 27.3558C61.5455 30.8652 61.8207 35.0752 61.139 38.959C60.2792 43.8575 58.2132 48.8916 54.5289 52.4926C50.1731 56.7498 43.7552 59.7827 37.2799 61.0944C31.8696 62.1903 25.6993 62.168 20.821 60.2182C14.0588 57.5152 8.57747 51.9352 5.07857 46.075C2.99949 42.5926 2.34694 38.3339 2.55133 34.2898C2.68515 31.6208 3.63023 28.8966 5.07857 26.4795C6.50758 24.0943 8.40469 21.8271 10.8102 20.3667C13.9061 18.4878 17.9338 17.5991 21.9153 17.0267C25.1672 16.5594 28.4925 16.3559 31.8231 16.3875Z" fill="#1188EE"/>
<path fill-rule="evenodd" clip-rule="evenodd" d="M4.19036 25.0231C3.94091 25.0356 3.70143 25.112 3.50253 25.2425C3.30363 25.3729 3.15434 25.5515 3.07374 25.7555C2.99314 25.9595 2.98489 26.1797 3.05006 26.3878C3.11522 26.5959 3.25083 26.7826 3.43955 26.9239C3.43955 26.9239 4.61601 27.8303 6.14835 28.8542C7.68069 29.8779 9.52295 31.0301 11.1979 31.5973C18.2941 33.9999 26.1037 34.3007 33.4965 34.2431C49.1362 34.1217 61.2322 28.452 61.2322 28.452C61.3816 28.3863 61.5141 28.2954 61.6221 28.1848C61.7301 28.0742 61.8113 27.9462 61.861 27.8081C61.9107 27.67 61.9279 27.5247 61.9115 27.3808C61.8951 27.2369 61.8455 27.0973 61.7656 26.9702C61.6857 26.843 61.5771 26.7309 61.4462 26.6405C61.3154 26.5501 61.1649 26.4833 61.0036 26.4439C60.8423 26.4045 60.6735 26.3934 60.5071 26.4111C60.3408 26.4288 60.1802 26.475 60.0349 26.5471C60.0349 26.5471 48.42 31.9591 33.4719 32.0757C26.1786 32.132 18.691 31.8044 12.1156 29.5781C10.9924 29.1979 9.1476 28.1142 7.68923 27.1398C6.23086 26.1655 5.11292 25.3068 5.11292 25.3068C4.98898 25.2086 4.84346 25.133 4.68498 25.0843C4.52651 25.0356 4.35831 25.0147 4.19036 25.0231Z" fill="#1188EE"/>
<path fill-rule="evenodd" clip-rule="evenodd" d="M62.0272 32.7445C61.7015 32.7557 61.3936 32.8756 61.1684 33.079C61.1684 33.079 60.602 33.5752 59.8631 34.1584C59.1242 34.7419 58.1783 35.4171 57.6598 35.6739C54.602 37.1892 51.0882 38.1398 47.5361 38.7345C44.5011 39.243 37.4468 39.1198 37.4468 39.1198C37.2818 39.1158 37.1175 39.1398 36.9633 39.1907C36.809 39.2415 36.668 39.3182 36.5481 39.4161C36.4281 39.514 36.3318 39.6313 36.2644 39.7614C36.1971 39.8914 36.1601 40.0315 36.1556 40.1738C36.1511 40.3162 36.1791 40.4581 36.2381 40.5911C36.2971 40.7241 36.3859 40.8457 36.4995 40.949C36.613 41.0524 36.749 41.1355 36.8998 41.1935C37.0505 41.2515 37.2131 41.2833 37.3781 41.2872C37.3781 41.2872 44.2622 41.493 48.017 40.8638C51.7558 40.2379 55.5289 39.2295 58.9111 37.5535C59.8267 37.0996 60.7685 36.3886 61.561 35.7628C62.3535 35.1371 62.9596 34.6027 62.9596 34.6027C63.1398 34.4491 63.262 34.2521 63.3102 34.0375C63.3583 33.823 63.3301 33.6009 63.2292 33.4004C63.1284 33.1999 62.9597 33.0304 62.7451 32.9141C62.5306 32.7979 62.2804 32.7402 62.0272 32.7488L62.0272 32.7445Z" fill="#1188EE"/>
<path fill-rule="evenodd" clip-rule="evenodd" d="M61.0065 42.1169C60.809 42.122 60.6156 42.1674 60.4422 42.2492C60.4422 42.2492 53.884 45.1549 50.7258 45.9363C48.609 46.4599 43.4386 46.8464 43.4386 46.8464C43.106 46.8689 42.7974 47.0042 42.5807 47.2229C42.3639 47.4417 42.2568 47.7258 42.2828 48.0127C42.3089 48.2996 42.4659 48.5657 42.7195 48.7527C42.973 48.9397 43.3023 49.0321 43.6349 49.0096C43.6349 49.0096 48.6533 48.7029 51.4178 48.019C55.2237 47.0773 61.6052 44.171 61.6052 44.171C61.8615 44.0608 62.0664 43.8785 62.186 43.6541C62.3056 43.4296 62.3327 43.1764 62.2629 42.9368C62.193 42.6972 62.0304 42.4854 61.8019 42.3365C61.5734 42.1875 61.2928 42.1094 61.0065 42.1169Z" fill="#1188EE"/>
<path fill-rule="evenodd" clip-rule="evenodd" d="M32.5297 18.868C30.2207 18.8897 27.2663 18.9309 24.4524 19.1136C21.6368 19.2956 18.997 19.5889 17.0915 20.2311C13.4611 21.4553 11.7034 23.7659 11.7034 23.7659C11.6127 23.8862 11.5507 24.021 11.5208 24.1622C11.491 24.3034 11.494 24.4482 11.5296 24.5884C11.5652 24.7286 11.6327 24.8612 11.7283 24.9787C11.8238 25.0962 11.9454 25.1963 12.0861 25.2729C12.0861 25.2729 17.7419 28.4 22.941 29.3452C28.0401 30.2727 36.4393 30.31 41.5836 29.4124C46.8319 28.4974 52.674 25.3441 52.674 25.3441C52.8432 25.2539 52.9852 25.1307 53.0883 24.984C53.1913 24.8373 53.2526 24.6714 53.2669 24.5003C53.2813 24.3292 53.2484 24.1577 53.1709 23.9998C53.0934 23.8418 52.9736 23.7017 52.8212 23.5915C52.8212 23.5915 49.1166 20.8203 45.4113 19.7986C41.8106 18.8059 37.1417 18.8324 32.5346 18.8673L32.5297 18.868ZM32.5544 21.0355C37.1439 21.0008 41.6881 21.0572 44.6458 21.8652C46.7533 22.4462 48.2872 23.5854 49.4893 24.367C47.5817 25.2751 44.3504 26.7192 41.0881 27.2879C36.5134 28.0855 27.9936 28.0485 23.4612 27.2249C20.0664 26.6077 16.7204 25.0378 14.9962 24.1858C15.5367 23.63 15.9171 22.9549 18.0044 22.2512C19.3694 21.791 21.9238 21.4537 24.639 21.2775C27.3541 21.102 30.2649 21.0528 32.5544 21.0355Z" fill="#1188EE"/>
<path fill-rule="evenodd" clip-rule="evenodd" d="M20.5511 9.61005L18.1515 10.2493L24.6683 28.5367L27.068 27.8975L20.5511 9.61005Z" fill="#1188EE"/>
<path fill-rule="evenodd" clip-rule="evenodd" d="M54.1167 4.43687C53.9615 4.44073 53.8084 4.4694 53.6653 4.5214L42.9871 8.24663C42.789 8.31603 42.6148 8.42782 42.4808 8.57153C42.3469 8.71523 42.2576 8.88611 42.2216 9.06787L38.3694 28.2359C38.3413 28.3762 38.3456 28.52 38.382 28.6589C38.4184 28.7978 38.4861 28.9294 38.5814 29.0457C38.7737 29.2807 39.0664 29.4401 39.395 29.4889C39.5577 29.5131 39.7244 29.5094 39.8854 29.478C40.0465 29.4467 40.1988 29.3882 40.3337 29.3061C40.6061 29.1401 40.7909 28.8876 40.8475 28.6041L44.577 10.0288L54.6075 6.53218C54.885 6.44056 55.1159 6.26707 55.2592 6.04245C55.4025 5.81783 55.4488 5.55664 55.39 5.30534C55.3311 5.05405 55.1709 4.82886 54.9378 4.66983C54.7047 4.5108 54.4138 4.42836 54.1167 4.43687Z" fill="#1188EE"/>
<path fill-rule="evenodd" clip-rule="evenodd" d="M17.8178 2.81577C17.6405 2.82148 17.4667 2.85958 17.3076 2.92743C17.1486 2.99527 17.0081 3.09139 16.8952 3.20946L8.80808 11.6082C8.63921 11.7845 8.53937 12.0024 8.52287 12.2307C8.50636 12.459 8.57403 12.686 8.71619 12.8792C8.85835 13.0723 9.0677 13.2217 9.31427 13.3059C9.56085 13.3902 9.83199 13.4048 10.0889 13.348L30.1105 8.87773C30.3683 8.82002 30.5982 8.69331 30.767 8.51553C30.9357 8.33774 31.0346 8.11819 31.0494 7.88875C31.0641 7.65931 30.994 7.43174 30.849 7.23895C30.704 7.04616 30.4918 6.8981 30.2429 6.81616L18.3085 2.88774C18.1521 2.83591 17.9853 2.81115 17.8178 2.81577ZM18.2545 5.18624L25.6694 7.62894L13.2295 10.4059L18.2545 5.18624Z" fill="#1188EE"/>
<path fill-rule="evenodd" clip-rule="evenodd" d="M16.8609 0.000844922C16.6639 0.00755438 16.4715 0.0540945 16.2992 0.136837C16.127 0.219579 15.9797 0.336146 15.8693 0.477081C15.759 0.618016 15.6886 0.779419 15.6639 0.948158C15.6393 1.1169 15.661 1.28831 15.7273 1.44847L16.748 4.04753C16.7987 4.18462 16.8806 4.3116 16.9888 4.42111C17.097 4.53062 17.2294 4.62052 17.3783 4.68542C17.5271 4.75033 17.6895 4.78899 17.8559 4.79919C18.0223 4.80939 18.1894 4.79091 18.3474 4.74482C18.5054 4.69873 18.6512 4.62599 18.7763 4.53078C18.9013 4.43556 19.0032 4.31979 19.0758 4.19027C19.1485 4.06074 19.1906 3.92003 19.1995 3.77634C19.2085 3.63265 19.1842 3.48879 19.128 3.35328L18.1073 0.754224C18.0237 0.528305 17.8565 0.332186 17.6314 0.196102C17.4062 0.0600175 17.1356 -0.00850947 16.8609 0.000844922Z" fill="#1188EE"/>
<path fill-rule="evenodd" clip-rule="evenodd" d="M8.8228 33.7733C8.70374 33.781 8.58969 33.818 8.49402 33.8796L1.16259 38.3795C1.09524 38.4209 1.03802 38.4733 0.994173 38.5338C0.950329 38.5943 0.920727 38.6616 0.907057 38.7319C0.893387 38.8023 0.895917 38.8743 0.914501 38.9439C0.933086 39.0134 0.967362 39.0792 1.01537 39.1373C1.06338 39.1954 1.12419 39.2447 1.19431 39.2825C1.26444 39.3203 1.34251 39.3459 1.42408 39.3577C1.50565 39.3695 1.58911 39.3673 1.6697 39.3513C1.75028 39.3353 1.82642 39.3057 1.89377 39.2643L9.22029 34.7601C9.33319 34.6927 9.41738 34.5952 9.45997 34.4826C9.50256 34.37 9.50121 34.2484 9.45613 34.1365C9.41104 34.0246 9.32471 33.9288 9.21033 33.8632C9.09595 33.7977 8.95983 33.7657 8.8228 33.7733Z" fill="#1188EE"/>
<path fill-rule="evenodd" clip-rule="evenodd" d="M11.2372 36.1692C11.1182 36.1815 11.0059 36.223 10.9133 36.2885L2.58569 41.9401C2.51572 41.9824 2.45649 42.0364 2.4116 42.0991C2.36672 42.1618 2.33712 42.2318 2.32463 42.3047C2.31214 42.3776 2.31701 42.4518 2.33895 42.523C2.36089 42.5942 2.39944 42.6608 2.45223 42.7188C2.50503 42.7767 2.57096 42.8249 2.64601 42.8601C2.72105 42.8953 2.80363 42.9168 2.88869 42.9236C2.97375 42.9303 3.05951 42.922 3.14073 42.8992C3.22194 42.8764 3.2969 42.8394 3.36103 42.7907L11.6886 37.1394C11.7979 37.0675 11.8768 36.9666 11.9132 36.8523C11.9496 36.738 11.9416 36.6165 11.8904 36.5065C11.8392 36.3965 11.7475 36.3041 11.6295 36.2433C11.5116 36.1825 11.3737 36.1559 11.2372 36.1692Z" fill="#1188EE"/>
<path fill-rule="evenodd" clip-rule="evenodd" d="M14.6035 38.18C14.462 38.1862 14.3271 38.2336 14.2208 38.3144L4.11675 45.786C4.05238 45.8319 3.99928 45.8886 3.96055 45.9524C3.92182 46.0163 3.89824 46.0862 3.89119 46.158C3.88414 46.2298 3.89377 46.3019 3.9195 46.3704C3.94523 46.439 3.98656 46.5026 4.04105 46.5572C4.09555 46.6118 4.16213 46.6566 4.23689 46.6887C4.31165 46.7209 4.3931 46.7396 4.47646 46.7443C4.55982 46.749 4.64342 46.7393 4.72237 46.7157C4.80132 46.6922 4.87404 46.6553 4.93626 46.6072L15.0403 39.1367C15.1414 39.0637 15.2133 38.9651 15.2459 38.8549C15.2784 38.7447 15.2699 38.6284 15.2216 38.5226C15.1733 38.4168 15.0876 38.3266 14.9767 38.2652C14.8657 38.2037 14.7352 38.1739 14.6035 38.18Z" fill="#1188EE"/>
<path fill-rule="evenodd" clip-rule="evenodd" d="M17.1553 41.1475C17.0132 41.1549 16.8782 41.2038 16.7726 41.2861L6.33483 49.1387C6.26959 49.1846 6.21572 49.2412 6.17641 49.3054C6.1371 49.3696 6.11315 49.4402 6.10599 49.5125C6.09883 49.5849 6.1086 49.6575 6.13472 49.7266C6.16085 49.7956 6.20279 49.8594 6.25805 49.9142C6.31332 49.9689 6.38079 50.0138 6.45645 50.0457C6.53211 50.0775 6.61441 50.0958 6.69848 50.0996C6.78254 50.1035 6.86665 50.0929 6.9458 50.0682C7.02496 50.0434 7.09754 50.0051 7.15925 49.9557L17.597 42.1031C17.6985 42.0299 17.7707 41.9307 17.8031 41.82C17.8356 41.7093 17.8267 41.5927 17.7778 41.4866C17.7288 41.3806 17.6423 41.2906 17.5305 41.2295C17.4187 41.1683 17.2874 41.1404 17.1553 41.1475Z" fill="#1188EE"/>
<path fill-rule="evenodd" clip-rule="evenodd" d="M19.9475 43.8313C19.8053 43.8348 19.6686 43.8798 19.5599 43.9591L8.12597 52.0998C7.99713 52.1914 7.91571 52.3233 7.89961 52.4666C7.88351 52.6098 7.93405 52.7525 8.04012 52.8637C8.14619 52.9748 8.2991 53.0453 8.46521 53.0592C8.63131 53.0731 8.79702 53.0293 8.92586 52.9378L20.3598 44.7973C20.4629 44.7263 20.5375 44.6291 20.5729 44.5195C20.6084 44.4098 20.6029 44.2932 20.5573 44.1864C20.5117 44.0796 20.4282 43.9878 20.3188 43.9242C20.2093 43.8606 20.0794 43.8276 19.9475 43.8313Z" fill="#1188EE"/>
<path fill-rule="evenodd" clip-rule="evenodd" d="M22.5975 47.1841C22.4772 47.1897 22.3614 47.2251 22.2638 47.2859L10.4913 54.4697C10.4239 54.5108 10.3666 54.5629 10.3226 54.6231C10.2787 54.6834 10.2489 54.7506 10.235 54.8208C10.2211 54.8909 10.2233 54.9628 10.2416 55.0322C10.2599 55.1016 10.2938 55.1672 10.3415 55.2253C10.3892 55.2834 10.4497 55.3329 10.5196 55.3708C10.5894 55.4088 10.6672 55.4342 10.7485 55.4462C10.8299 55.4582 10.9132 55.4565 10.9937 55.4407C11.0741 55.4249 11.1502 55.3956 11.2175 55.3544L22.99 48.1707C23.1024 48.1034 23.1863 48.0063 23.229 47.8942C23.2716 47.782 23.2706 47.6611 23.2262 47.5494C23.1818 47.4378 23.0963 47.3418 22.9828 47.2759C22.8694 47.21 22.734 47.1776 22.5975 47.1841Z" fill="#1188EE"/>
<path fill-rule="evenodd" clip-rule="evenodd" d="M25.9687 49.0975C25.8266 49.0963 25.6882 49.1368 25.5762 49.2123L14.5839 56.3963C14.4512 56.4833 14.364 56.6121 14.3414 56.7546C14.3189 56.897 14.3629 57.0414 14.4638 57.1559C14.5646 57.2704 14.7141 57.3458 14.8793 57.3652C15.0444 57.3846 15.2118 57.3466 15.3445 57.2596L26.3368 50.0761C26.4429 50.0086 26.5216 49.914 26.5619 49.8057C26.6022 49.6974 26.602 49.5808 26.5613 49.4726C26.5206 49.3645 26.4414 49.27 26.3351 49.2028C26.2287 49.1355 26.1006 49.0984 25.9687 49.0975Z" fill="#1188EE"/>
<path fill-rule="evenodd" clip-rule="evenodd" d="M29.3106 51.1082C29.1684 51.1071 29.03 51.1476 28.918 51.2231L17.0326 58.7878C16.9647 58.8296 16.9071 58.8825 16.8632 58.9437C16.8193 59.0048 16.7899 59.0726 16.7768 59.1437C16.7636 59.2147 16.7671 59.2873 16.7868 59.3572C16.8065 59.4271 16.8422 59.493 16.8917 59.5509C16.9412 59.6087 17.0036 59.6574 17.0751 59.6943C17.1467 59.7311 17.2261 59.7556 17.3087 59.7657C17.3912 59.7758 17.4753 59.7714 17.5559 59.7533C17.6366 59.7351 17.7123 59.7033 17.7785 59.6596L29.6639 52.0909C29.7711 52.0246 29.8515 51.9308 29.8935 51.8229C29.9355 51.715 29.937 51.5985 29.8979 51.4898C29.8588 51.3811 29.7811 51.2857 29.6756 51.2173C29.5702 51.1488 29.4425 51.1105 29.3106 51.1082Z" fill="#1188EE"/>
<path fill-rule="evenodd" clip-rule="evenodd" d="M32.6524 53.4069C32.4883 53.4009 32.328 53.4507 32.2059 53.5455L22.5484 60.8269C22.4831 60.8728 22.4293 60.9293 22.39 60.9936C22.3507 61.0578 22.3267 61.1284 22.3195 61.2007C22.3124 61.2731 22.3222 61.3457 22.3483 61.4148C22.3744 61.4838 22.4163 61.5476 22.4716 61.6024C22.5269 61.6571 22.5943 61.702 22.67 61.7338C22.7457 61.7657 22.828 61.784 22.912 61.7878C22.9961 61.7917 23.0802 61.7811 23.1594 61.7563C23.2385 61.7316 23.3111 61.6933 23.3728 61.6439L33.0352 54.3628C33.1325 54.2923 33.2028 54.1978 33.2368 54.0921C33.2707 53.9864 33.2666 53.8746 33.2252 53.7709C33.1837 53.6673 33.1067 53.5768 33.0045 53.5116C32.9022 53.4465 32.7795 53.4105 32.6524 53.4069Z" fill="#1188EE"/>
<path fill-rule="evenodd" clip-rule="evenodd" d="M36.7009 55.9934C36.5379 56.0011 36.3847 56.0632 36.274 56.1667L29.1683 62.5845C29.1112 62.6359 29.0665 62.6965 29.0366 62.7628C29.0067 62.8292 28.9923 62.8999 28.9941 62.9711C28.996 63.0422 29.014 63.1123 29.0472 63.1774C29.0805 63.2426 29.1283 63.3015 29.1879 63.3507C29.2475 63.3999 29.3178 63.4385 29.3947 63.4642C29.4716 63.49 29.5536 63.5023 29.6361 63.5007C29.7185 63.4992 29.7999 63.4836 29.8754 63.455C29.9509 63.4263 30.0191 63.3852 30.0761 63.3338L37.1818 56.916C37.2713 56.8382 37.3314 56.7389 37.3541 56.631C37.3768 56.5232 37.3611 56.4119 37.309 56.312C37.2569 56.212 37.1709 56.1281 37.0623 56.0712C36.9538 56.0143 36.8277 55.9873 36.7009 55.9934Z" fill="#1188EE"/>
</svg>
