<svg width="64" height="64" viewBox="0 0 64 64" fill="none" xmlns="http://www.w3.org/2000/svg">
<path fill-rule="evenodd" clip-rule="evenodd" d="M14.7902 11.2579C14.6016 11.2517 14.4137 11.2827 14.2379 11.3486C14.0622 11.4146 13.9024 11.5141 13.7683 11.6414C13.7683 11.6414 8.48619 16.6233 5.9771 19.4727C4.48163 21.1705 2.64135 22.9275 1.49486 25.2775C0.619758 27.0711 -0.0564576 29.1256 0.0242102 31.2792C0.100676 33.3061 0.95785 35.0854 1.75439 36.6279C2.97989 39.0013 5.96088 42.3964 5.96088 42.3964C6.07624 42.5312 6.21817 42.6427 6.37856 42.7249C6.53895 42.8071 6.71467 42.8584 6.89567 42.8755C7.07667 42.8926 7.25942 42.8753 7.43347 42.8247C7.60752 42.7741 7.76947 42.691 7.91007 42.5804C8.05067 42.4698 8.16716 42.3338 8.2529 42.18C8.33864 42.0263 8.39194 41.8579 8.40976 41.6844C8.42758 41.5109 8.40957 41.3356 8.35676 41.1687C8.30395 41.0019 8.21738 40.8468 8.10198 40.712C8.10198 40.712 5.08849 37.102 4.23611 35.4514C3.47632 33.98 2.83741 32.5199 2.78709 31.1859C2.72934 29.6442 3.24433 27.9585 4.00362 26.4022C4.88185 24.602 6.50333 22.9859 8.09117 21.1831C10.067 18.9394 13.532 15.6613 14.6604 14.5853C15.6793 15.6895 18.4529 18.6514 19.8888 20.7114C21.2868 22.7173 22.6569 24.6515 23.2573 26.6717C23.832 28.6051 24.001 30.7133 23.652 32.6475C23.4307 33.8687 22.8249 35.1161 22.0353 36.234C21.697 36.713 20.8061 37.6003 20.0402 38.2812C19.2743 38.9619 18.629 39.4733 18.629 39.4733C18.4888 39.5846 18.3728 39.7214 18.2876 39.8756C18.2025 40.0299 18.1499 40.1988 18.1328 40.3725C18.1157 40.5463 18.1345 40.7214 18.1881 40.8882C18.2417 41.055 18.329 41.2099 18.4451 41.3443C18.5612 41.4787 18.7038 41.5902 18.8647 41.6718C19.0256 41.7534 19.2017 41.8038 19.383 41.8202C19.5643 41.8365 19.7471 41.8184 19.9211 41.767C20.0951 41.7157 20.2568 41.6318 20.3971 41.5205C20.3971 41.5205 21.095 40.9596 21.9218 40.2248C22.7485 39.4898 23.6961 38.616 24.3278 37.7215C25.2795 36.3743 26.0721 34.8157 26.3824 33.1036C26.8134 30.7153 26.5967 28.2366 25.9174 25.9513C25.148 23.3621 23.5713 21.2235 22.1921 19.2447C20.2007 16.3878 15.7688 11.7036 15.7688 11.7036C15.6449 11.571 15.4944 11.4638 15.3262 11.3881C15.1581 11.3125 14.9758 11.2702 14.7902 11.2634V11.2579Z" fill="#1188EE"/>
<path fill-rule="evenodd" clip-rule="evenodd" d="M18.5479 0.140597C14.9868 -0.511396 11.6799 1.23866 9.05358 2.62836C6.60183 3.92571 4.24288 5.7322 2.67895 8.12736C0.927898 10.8091 0.233203 13.9761 0.0242103 16.9537C-0.0989866 18.7194 0.269622 20.9462 0.640586 22.8311C1.01155 24.7159 1.40835 26.2207 1.40835 26.2207L4.09013 25.5728C4.09013 25.5728 3.71412 24.1368 3.36021 22.3387C3.0063 20.5404 2.70266 18.34 2.78709 17.13C2.97673 14.428 3.62625 11.6801 5.02551 9.53709C6.25035 7.66151 8.24477 6.08788 10.3945 4.95027C12.9664 3.58924 15.7578 2.33201 18.0289 2.74757C20.0767 3.12252 22.1327 4.92788 23.5006 6.87829C24.9251 8.90937 25.5897 11.6387 25.593 14.2276C25.5951 15.9556 24.389 17.9139 23.7925 20.3796C23.4264 21.8937 22.9166 24.7332 22.9166 24.7332L25.6471 25.1841C25.6471 25.1841 26.1723 22.2915 26.4905 20.9756H26.485C26.9388 19.0995 28.3645 16.9565 28.3612 14.2276C28.3573 11.221 27.6305 8.00822 25.7983 5.396C24.1809 3.08974 21.756 0.727842 18.5479 0.140597Z" fill="#1188EE"/>
<path fill-rule="evenodd" clip-rule="evenodd" d="M2.241 36.3997C2.241 36.3997 0.626818 45.0453 0.75413 49.7974C0.823434 52.4266 0.467379 55.7506 2.3167 58.5616H2.3113C4.06149 61.2226 7.05118 63.2883 10.335 63.8533C13.4368 64.3866 16.6216 63.3524 19.0616 61.7698C21.8405 59.9677 23.8332 57.131 24.8631 54.1717C25.9416 51.0723 25.1543 47.9746 25.0523 45.3764C24.9441 42.5729 24.3116 37.3019 24.3116 37.3019L21.5595 37.6025C21.5595 37.6025 22.1922 42.9442 22.2895 45.4752C22.4042 48.4239 22.9888 51.167 22.2354 53.3321C21.3811 55.7872 19.6683 58.1708 17.5152 59.5674C15.5642 60.8326 12.9434 61.6055 10.827 61.2414C8.45469 60.8336 5.97271 59.1456 4.65786 57.1467C3.46705 55.3366 3.59708 52.5623 3.52243 49.7303C3.41388 45.6788 4.97146 36.8562 4.97146 36.8562L2.241 36.3997Z" fill="#1188EE"/>
<path fill-rule="evenodd" clip-rule="evenodd" d="M14.6226 8.30875C14.2555 8.30741 13.9028 8.4457 13.6423 8.69358C13.3817 8.94145 13.2345 9.27847 13.233 9.63038L13.1736 12.6779C13.1699 12.8521 13.2021 13.0251 13.2683 13.1874C13.3345 13.3497 13.4334 13.4981 13.5594 13.6238C13.6854 13.7494 13.8359 13.8503 14.0024 13.9201C14.169 13.99 14.3483 14.0278 14.53 14.0313C14.7118 14.0347 14.8925 14.0037 15.0618 13.9402C15.2311 13.8768 15.3858 13.7821 15.5169 13.6613C15.648 13.5406 15.753 13.3963 15.8259 13.2367C15.8988 13.077 15.9382 12.9053 15.9419 12.731L16.0013 9.67832C16.0071 9.50105 15.9758 9.3242 15.9091 9.15874C15.8425 8.99327 15.742 8.84253 15.6134 8.71496C15.4849 8.58738 15.331 8.48556 15.1608 8.41597C14.9906 8.34639 14.8076 8.30938 14.6226 8.30875Z" fill="#1188EE"/>
<path fill-rule="evenodd" clip-rule="evenodd" d="M49.2316 11.2577C49.0423 11.2617 48.8558 11.3028 48.6838 11.3785C48.5117 11.4543 48.3577 11.5631 48.2313 11.6982C48.2313 11.6982 43.7995 16.3824 41.808 19.2393C40.4289 21.2181 38.8521 23.3567 38.0827 25.9459C37.4034 28.2312 37.1867 30.7099 37.6177 33.0982C37.928 34.8103 38.7206 36.3685 39.6723 37.7158C40.3041 38.6103 41.2516 39.4844 42.0784 40.2194C42.9051 40.9542 43.6031 41.5151 43.6031 41.5151C43.7433 41.6264 43.905 41.7103 44.079 41.7616C44.253 41.813 44.4359 41.8308 44.6171 41.8144C44.7984 41.7981 44.9745 41.7477 45.1354 41.6661C45.2964 41.5845 45.4389 41.4733 45.555 41.3389C45.6711 41.2045 45.7585 41.0493 45.8121 40.8825C45.8656 40.7157 45.8844 40.5406 45.8674 40.3668C45.8503 40.1931 45.7977 40.0242 45.7125 39.8699C45.6274 39.7156 45.5113 39.5792 45.3711 39.4679C45.3711 39.4679 44.7258 38.9565 43.9599 38.2759C43.1941 37.5949 42.3031 36.7076 41.9648 36.2286C41.1753 35.1107 40.5694 33.863 40.3482 32.6418C39.9991 30.7076 40.1681 28.5997 40.7429 26.6663C41.3432 24.6461 42.7133 22.7119 44.1113 20.706C45.5473 18.646 48.3208 15.6841 49.3397 14.5799C50.4681 15.6559 53.9331 18.934 55.909 21.1777C57.4968 22.9805 59.1183 24.5966 59.9965 26.3968C60.7558 27.9531 61.2708 29.6385 61.213 31.1802C61.1627 32.5142 60.5238 33.9746 59.764 35.446C58.9116 37.0966 55.8982 40.7066 55.8982 40.7066C55.7828 40.8414 55.6962 40.9965 55.6434 41.1633C55.5906 41.3302 55.5726 41.5052 55.5904 41.6787C55.6083 41.8522 55.6616 42.0209 55.7473 42.1746C55.833 42.3284 55.9495 42.4644 56.0901 42.575C56.2307 42.6856 56.3927 42.7683 56.5667 42.8189C56.7407 42.8695 56.9235 42.8869 57.1045 42.8698C57.2855 42.8527 57.4612 42.8017 57.6216 42.7195C57.782 42.6373 57.9239 42.5255 58.0392 42.3907C58.0392 42.3907 61.0202 38.9956 62.2457 36.6222C63.0423 35.0797 63.8995 33.3007 63.9759 31.2738C64.0566 29.1202 63.3804 27.0657 62.5053 25.2721C61.3588 22.9221 59.5185 21.1651 58.023 19.4673C55.5139 16.6179 50.2318 11.636 50.2318 11.636C50.1003 11.5113 49.944 11.413 49.7722 11.3471C49.6004 11.2812 49.4166 11.2491 49.2316 11.2525V11.2577Z" fill="#1188EE"/>
<path fill-rule="evenodd" clip-rule="evenodd" d="M45.4522 0.140597C42.2441 0.727842 39.8191 3.08974 38.2017 5.396C36.3695 8.00822 35.6427 11.221 35.6388 14.2276C35.6355 16.9565 37.0612 19.0995 37.515 20.9756H37.5095C37.8277 22.2915 38.3529 25.1841 38.3529 25.1841L41.0834 24.7332C41.0834 24.7332 40.5736 21.8937 40.2075 20.3796C39.611 17.9139 38.4049 15.9556 38.407 14.2276C38.4103 11.6387 39.075 8.90937 40.4994 6.87829C41.8673 4.92788 43.9233 3.12252 45.9711 2.74757C48.2422 2.33201 51.0336 3.58924 53.6055 4.95027C55.7552 6.08788 57.7496 7.66151 58.9745 9.53709C60.3737 11.6801 61.0233 14.428 61.2129 17.13C61.2973 18.34 60.9937 20.5404 60.6398 22.3387C60.2859 24.1368 59.9099 25.5728 59.9099 25.5728L62.5916 26.2207C62.5916 26.2207 62.9885 24.7159 63.3594 22.8311C63.7304 20.9462 64.099 18.7194 63.9758 16.9537C63.7668 13.9761 63.0721 10.8091 61.321 8.12736C59.7571 5.7322 57.3982 3.92571 54.9464 2.62836C52.3201 1.23866 49.0134 -0.511396 45.4522 0.140597Z" fill="#1188EE"/>
<path fill-rule="evenodd" clip-rule="evenodd" d="M61.7591 36.3997L59.0287 36.8558C59.0287 36.8558 60.5863 45.6785 60.4777 49.73C60.4031 52.5619 60.5331 55.3366 59.3423 57.1467C58.0274 59.1456 55.5455 60.8332 53.1731 61.2411C51.0567 61.6052 48.4359 60.8323 46.4849 59.567C44.3318 58.1704 42.619 55.7872 41.7648 53.3321C41.0113 51.167 41.5959 48.4236 41.7107 45.4749C41.8079 42.9439 42.4406 37.6022 42.4406 37.6022L39.6886 37.3016C39.6886 37.3016 39.0555 42.5791 38.9478 45.3816C38.8459 47.9798 38.0586 51.0775 39.1371 54.1769C40.1669 57.1362 42.1597 59.9725 44.9386 61.7746C47.3786 63.3572 50.5633 64.3918 53.6651 63.8584C56.949 63.2935 59.9387 61.2275 61.6888 58.5664H61.6833C63.5326 55.7555 63.1766 52.4314 63.2459 49.8022C63.3732 45.0502 61.759 36.4049 61.759 36.4049L61.7591 36.3997Z" fill="#1188EE"/>
<path fill-rule="evenodd" clip-rule="evenodd" d="M49.3343 8.30858C48.9681 8.32078 48.6218 8.47154 48.3715 8.72807C48.1211 8.98459 47.9871 9.32576 47.9988 9.67685L48.0583 12.7295C48.0656 13.0814 48.2185 13.4163 48.4832 13.6602C48.748 13.904 49.103 14.0368 49.4701 14.0298C49.8372 14.0228 50.1863 13.8764 50.4407 13.6226C50.6951 13.3688 50.8339 13.0283 50.8266 12.6764L50.7671 9.62923C50.7665 9.45143 50.7286 9.27542 50.6557 9.11192C50.5828 8.94842 50.4764 8.80083 50.3427 8.67753C50.2091 8.55424 50.0509 8.45798 49.8777 8.39442C49.7045 8.33086 49.5197 8.30235 49.3343 8.30858Z" fill="#1188EE"/>
<path fill-rule="evenodd" clip-rule="evenodd" d="M7.12875 42.9975C6.97318 43.0044 6.8246 43.0616 6.70702 43.1595L1.81386 47.1447C1.67405 47.2588 1.58724 47.4215 1.57253 47.5969C1.55782 47.7724 1.61642 47.9462 1.73544 48.0802C1.85445 48.2143 2.02414 48.2977 2.20716 48.3119C2.39019 48.326 2.57156 48.2698 2.71139 48.1557L7.60455 44.1698C7.71549 44.0807 7.79449 43.9605 7.83044 43.8261C7.86638 43.6917 7.85747 43.5498 7.80495 43.4205C7.75243 43.2913 7.65895 43.1811 7.53765 43.1054C7.41636 43.0297 7.27335 42.9912 7.12875 42.9975Z" fill="#1188EE"/>
<path fill-rule="evenodd" clip-rule="evenodd" d="M8.11279 45.1069C7.93287 45.1123 7.7622 45.1844 7.63699 45.3084L1.5219 51.2894C1.45645 51.3513 1.40453 51.4251 1.36915 51.5064C1.33377 51.5878 1.31565 51.6752 1.31585 51.7633C1.31605 51.8514 1.33456 51.9387 1.3703 52.0199C1.40604 52.101 1.4583 52.1746 1.52402 52.2362C1.58974 52.2979 1.66761 52.3463 1.75308 52.3788C1.83855 52.4112 1.9299 52.4268 2.02182 52.4251C2.11373 52.4233 2.20436 52.4041 2.2884 52.3684C2.37245 52.3327 2.44824 52.2812 2.51134 52.2171L8.62644 46.2361C8.72384 46.1418 8.7895 46.0216 8.81492 45.8912C8.84035 45.7607 8.82438 45.626 8.76907 45.5044C8.71376 45.3827 8.62166 45.2799 8.50467 45.209C8.38768 45.138 8.25117 45.1027 8.11279 45.1069Z" fill="#1188EE"/>
<path fill-rule="evenodd" clip-rule="evenodd" d="M9.05898 47.9212C8.88158 47.936 8.71698 48.0158 8.59941 48.144L2.23559 54.9491C2.11302 55.0804 2.04987 55.2529 2.06002 55.4288C2.07017 55.6048 2.15279 55.7697 2.28972 55.8872C2.42665 56.0047 2.60667 56.065 2.79018 56.0553C2.97369 56.0456 3.14567 55.9666 3.26829 55.8354L9.6267 49.0303C9.72058 48.9319 9.78134 48.8086 9.80106 48.6766C9.82078 48.5446 9.79855 48.4098 9.73727 48.2901C9.67598 48.1704 9.57848 48.0712 9.45749 48.0054C9.3365 47.9396 9.19763 47.9102 9.05898 47.9212Z" fill="#1188EE"/>
<path fill-rule="evenodd" clip-rule="evenodd" d="M10.0322 50.7354C9.85317 50.753 9.68832 50.8368 9.57263 50.9689L3.57648 57.5356C3.51347 57.6008 3.46475 57.6772 3.43323 57.7607C3.40171 57.8443 3.38802 57.9331 3.39298 58.0218C3.39793 58.1105 3.42144 58.1975 3.46209 58.2774C3.50274 58.3572 3.55972 58.4286 3.62963 58.487C3.69955 58.5453 3.78098 58.5896 3.86909 58.6172C3.95721 58.6448 4.05021 58.6551 4.14258 58.6476C4.23495 58.6401 4.32481 58.6149 4.40682 58.5735C4.48883 58.532 4.56132 58.4751 4.62 58.4063L10.6107 51.8393C10.7037 51.7401 10.7633 51.6165 10.7817 51.4843C10.8002 51.3521 10.7766 51.2177 10.7142 51.0985C10.6517 50.9793 10.5532 50.8808 10.4316 50.816C10.3099 50.7513 10.1708 50.7231 10.0322 50.7354Z" fill="#1188EE"/>
<path fill-rule="evenodd" clip-rule="evenodd" d="M11.1514 52.6116C11.0505 52.6178 10.9522 52.6451 10.8634 52.6916C10.7747 52.7381 10.6977 52.8029 10.6378 52.8811L5.50131 59.4478C5.44663 59.5175 5.40683 59.5968 5.38416 59.6813C5.3615 59.7658 5.35642 59.8537 5.36922 59.9401C5.38202 60.0265 5.41245 60.1096 5.45876 60.1847C5.50508 60.2598 5.56638 60.3257 5.63915 60.3781C5.71193 60.4305 5.79477 60.4684 5.88293 60.4902C5.97109 60.5119 6.06285 60.517 6.15298 60.5047C6.2431 60.4925 6.32982 60.4633 6.40819 60.4189C6.48655 60.3745 6.55503 60.3157 6.6097 60.2459L11.7462 53.6792C11.8277 53.5781 11.877 53.4565 11.8882 53.3291C11.8993 53.2017 11.8718 53.0739 11.809 52.9611C11.7461 52.8483 11.6507 52.7552 11.534 52.6932C11.4173 52.6312 11.2845 52.6029 11.1514 52.6116Z" fill="#1188EE"/>
<path fill-rule="evenodd" clip-rule="evenodd" d="M12.4923 55.3068C12.3918 55.3143 12.2943 55.3429 12.2065 55.3903C12.1187 55.4378 12.0428 55.503 11.9841 55.5814L7.82083 60.9768C7.7659 61.0468 7.72598 61.1267 7.70339 61.2116C7.6808 61.2965 7.67598 61.3847 7.68921 61.4714C7.70244 61.5581 7.73345 61.6415 7.78046 61.7166C7.82747 61.7918 7.88954 61.8573 7.9631 61.9094C8.03665 61.9614 8.12023 61.9989 8.209 62.0198C8.29778 62.0407 8.38999 62.0446 8.48032 62.0312C8.57065 62.0177 8.6573 61.9872 8.73528 61.9414C8.81325 61.8957 8.88101 61.8355 8.93463 61.7646L13.0925 56.3692C13.1728 56.2677 13.2208 56.1461 13.2309 56.0191C13.241 55.892 13.2127 55.7648 13.1494 55.6527C13.0861 55.5406 12.9905 55.4484 12.874 55.3871C12.7574 55.3257 12.6249 55.2978 12.4923 55.3068Z" fill="#1188EE"/>
<path fill-rule="evenodd" clip-rule="evenodd" d="M13.7197 57.8877C13.5953 57.8953 13.4754 57.9348 13.3726 58.0023C13.2699 58.0699 13.188 58.1628 13.1357 58.2712L11.5461 61.4379C11.4666 61.5967 11.4561 61.779 11.5169 61.9452C11.5778 62.1114 11.705 62.2476 11.8706 62.3238C12.0362 62.4001 12.2266 62.4103 12.4 62.352C12.5734 62.2937 12.7155 62.1719 12.7951 62.0132L14.3847 58.8465C14.4393 58.742 14.4641 58.6256 14.4566 58.509C14.4492 58.3923 14.4097 58.2794 14.3422 58.1821C14.2747 58.0848 14.1816 58.0065 14.0723 57.9547C13.9629 57.903 13.8413 57.8799 13.7197 57.8877Z" fill="#1188EE"/>
<path fill-rule="evenodd" clip-rule="evenodd" d="M9.03736 6.81595C8.85743 6.82131 8.68677 6.89346 8.56156 7.01744L1.55434 13.6515C1.4879 13.7123 1.43477 13.7852 1.39805 13.8659C1.36132 13.9467 1.34174 14.0337 1.34044 14.1218C1.33914 14.2099 1.35615 14.2973 1.39048 14.379C1.4248 14.4607 1.47576 14.535 1.54037 14.5977C1.60499 14.6603 1.68197 14.7099 1.76682 14.7438C1.85167 14.7776 1.9427 14.7949 2.03459 14.7946C2.12648 14.7943 2.2174 14.7768 2.30204 14.7425C2.38668 14.7082 2.46334 14.6578 2.52756 14.5948L9.52938 7.96071C9.63114 7.86856 9.70136 7.7492 9.73077 7.618C9.76017 7.4868 9.74738 7.35013 9.69409 7.22605C9.64079 7.10196 9.54949 6.99617 9.43225 6.92285C9.315 6.84953 9.17731 6.81271 9.03736 6.81595Z" fill="#1188EE"/>
<path fill-rule="evenodd" clip-rule="evenodd" d="M8.9887 10.1331C8.88835 10.13 8.7885 10.1477 8.69607 10.1853C8.60364 10.2229 8.52084 10.2792 8.45342 10.3505L1.18667 17.8138C1.12453 17.8774 1.07608 17.9521 1.04408 18.0337C1.01207 18.1153 0.99715 18.2022 1.00016 18.2893C1.00316 18.3764 1.02404 18.4623 1.0616 18.5416C1.09916 18.621 1.15267 18.6926 1.21906 18.7522C1.28545 18.8118 1.36343 18.8579 1.44855 18.8886C1.53367 18.9192 1.62425 18.9336 1.71513 18.9307C1.80601 18.9278 1.89541 18.9077 1.97822 18.8717C2.06103 18.8357 2.13562 18.7844 2.19775 18.7208L9.46449 11.2575C9.55777 11.1651 9.62104 11.0491 9.64662 10.9229C9.6722 10.7967 9.65898 10.6659 9.60858 10.5468C9.55818 10.4277 9.47277 10.3251 9.36272 10.2517C9.25267 10.1782 9.12273 10.1371 8.9887 10.1331Z" fill="#1188EE"/>
<path fill-rule="evenodd" clip-rule="evenodd" d="M8.96707 13.8647C8.78683 13.8659 8.61419 13.9345 8.48586 14.0559L2.17071 19.7774C2.09712 19.835 2.03667 19.9067 1.99314 19.9876C1.94961 20.0686 1.92393 20.1572 1.91769 20.2481C1.91145 20.3389 1.9248 20.4299 1.95689 20.5156C1.98898 20.6013 2.03914 20.6799 2.10423 20.7463C2.16932 20.8126 2.24796 20.8652 2.33525 20.9011C2.42254 20.937 2.51661 20.9553 2.61161 20.9549C2.7066 20.9544 2.80049 20.9356 2.88742 20.8988C2.97435 20.8621 3.05247 20.8086 3.1169 20.7417L9.43205 15.0196C9.53586 14.9296 9.60879 14.8115 9.64121 14.681C9.67364 14.5506 9.66404 14.4139 9.61368 14.2888C9.56333 14.1636 9.47458 14.0559 9.35914 13.9801C9.24371 13.9042 9.10701 13.8646 8.96707 13.8647Z" fill="#1188EE"/>
<path fill-rule="evenodd" clip-rule="evenodd" d="M45.0197 42.9975C44.8641 43.0044 44.7155 43.0616 44.5979 43.1595L39.7048 47.1447C39.5649 47.2588 39.4781 47.4215 39.4634 47.5969C39.4487 47.7724 39.5073 47.9462 39.6263 48.0802C39.7453 48.2143 39.915 48.2978 40.098 48.3119C40.2811 48.326 40.4625 48.2698 40.6023 48.1557L45.4955 44.1698C45.6064 44.0807 45.6854 43.9605 45.7213 43.8261C45.7573 43.6917 45.7484 43.5498 45.6959 43.4205C45.6433 43.2913 45.5498 43.1811 45.4286 43.1054C45.3073 43.0297 45.1642 42.9912 45.0197 42.9975Z" fill="#1188EE"/>
<path fill-rule="evenodd" clip-rule="evenodd" d="M46.0037 45.1069C45.8238 45.1123 45.6531 45.1844 45.5279 45.3084L39.4128 51.2894C39.3474 51.3513 39.2954 51.4251 39.2601 51.5064C39.2247 51.5878 39.2066 51.6752 39.2068 51.7633C39.207 51.8514 39.2255 51.9387 39.2612 52.0199C39.2969 52.101 39.3492 52.1746 39.4149 52.2362C39.4806 52.2979 39.5585 52.3463 39.644 52.3788C39.7295 52.4112 39.8208 52.4268 39.9127 52.4251C40.0046 52.4233 40.0953 52.4041 40.1793 52.3684C40.2634 52.3327 40.3391 52.2812 40.4022 52.2171L46.5173 46.2361C46.6147 46.1418 46.6804 46.0216 46.7058 45.8912C46.7313 45.7607 46.7153 45.626 46.66 45.5044C46.6047 45.3827 46.5126 45.2799 46.3956 45.209C46.2786 45.138 46.1421 45.1027 46.0037 45.1069Z" fill="#1188EE"/>
<path fill-rule="evenodd" clip-rule="evenodd" d="M46.9499 47.9212C46.7725 47.936 46.6079 48.0158 46.4903 48.144L40.1265 54.9491C40.0658 55.0141 40.019 55.09 39.9889 55.1723C39.9587 55.2546 39.9458 55.3417 39.9508 55.4288C39.961 55.6048 40.0436 55.7697 40.1805 55.8872C40.3175 56.0047 40.4975 56.0654 40.6811 56.0556C40.8646 56.0459 41.0366 55.9666 41.1592 55.8354L47.5176 49.0303C47.6115 48.9319 47.6722 48.8086 47.692 48.6766C47.7117 48.5446 47.6895 48.4098 47.6282 48.2901C47.5669 48.1704 47.4694 48.0712 47.3484 48.0054C47.2274 47.9396 47.0885 47.9102 46.9499 47.9212Z" fill="#1188EE"/>
<path fill-rule="evenodd" clip-rule="evenodd" d="M47.9231 50.7354C47.7441 50.753 47.5792 50.8368 47.4635 50.9689L41.4674 57.5356C41.4044 57.6008 41.3556 57.6772 41.3241 57.7607C41.2926 57.8443 41.2789 57.9331 41.2839 58.0218C41.2888 58.1105 41.3123 58.1975 41.353 58.2774C41.3936 58.3573 41.4506 58.4286 41.5205 58.487C41.5904 58.5453 41.6719 58.5896 41.76 58.6172C41.8481 58.6448 41.9411 58.6551 42.0335 58.6476C42.1259 58.6401 42.2157 58.6149 42.2977 58.5735C42.3797 58.532 42.4522 58.4751 42.5109 58.4063L48.5016 51.8393C48.5946 51.7401 48.6542 51.6165 48.6726 51.4843C48.6911 51.3521 48.6675 51.2177 48.6051 51.0985C48.5426 50.9793 48.4441 50.8808 48.3225 50.816C48.2008 50.7513 48.0617 50.7231 47.9231 50.7354Z" fill="#1188EE"/>
<path fill-rule="evenodd" clip-rule="evenodd" d="M49.0423 52.6116C48.9414 52.6178 48.8431 52.6451 48.7543 52.6916C48.6656 52.7381 48.5886 52.8029 48.5287 52.8811L43.3922 59.4478C43.3375 59.5175 43.2977 59.5968 43.2751 59.6813C43.2524 59.7658 43.2473 59.8537 43.2601 59.9401C43.2729 60.0265 43.3033 60.1096 43.3497 60.1847C43.396 60.2598 43.4573 60.3257 43.5301 60.3781C43.6028 60.4305 43.6857 60.4684 43.7738 60.4902C43.862 60.5119 43.9538 60.517 44.0439 60.5047C44.134 60.4925 44.2207 60.4633 44.2991 60.4189C44.3775 60.3745 44.4459 60.3157 44.5006 60.2459L49.6371 53.6792C49.7186 53.5781 49.7679 53.4565 49.7791 53.3291C49.7902 53.2017 49.7627 53.0739 49.6999 52.9611C49.637 52.8483 49.5416 52.7552 49.4249 52.6932C49.3082 52.6312 49.1754 52.6029 49.0423 52.6116Z" fill="#1188EE"/>
<path fill-rule="evenodd" clip-rule="evenodd" d="M50.3832 55.3068C50.2827 55.3143 50.1852 55.3429 50.0974 55.3903C50.0096 55.4378 49.9337 55.503 49.875 55.5814L45.7117 60.9768C45.6568 61.0468 45.6169 61.1267 45.5943 61.2116C45.5717 61.2965 45.5669 61.3847 45.5801 61.4714C45.5934 61.5581 45.6244 61.6415 45.6714 61.7166C45.7184 61.7918 45.7805 61.8573 45.854 61.9094C45.9276 61.9614 46.0111 61.9989 46.0999 62.0198C46.1887 62.0407 46.2809 62.0446 46.3712 62.0312C46.4616 62.0177 46.5482 61.9872 46.6262 61.9414C46.7042 61.8957 46.7719 61.8355 46.8255 61.7646L50.9834 56.3692C51.0637 56.2677 51.1117 56.1461 51.1218 56.0191C51.1319 55.892 51.1036 55.7648 51.0403 55.6527C50.977 55.5406 50.8814 55.4484 50.7649 55.3871C50.6483 55.3257 50.5158 55.2978 50.3832 55.3068Z" fill="#1188EE"/>
<path fill-rule="evenodd" clip-rule="evenodd" d="M51.6106 57.8877C51.4862 57.8953 51.3663 57.9348 51.2635 58.0023C51.1608 58.0699 51.0789 58.1628 51.0266 58.2712L49.437 61.4379C49.3976 61.5165 49.3747 61.6019 49.3697 61.6889C49.3647 61.776 49.3776 61.8632 49.4077 61.9455C49.4686 62.1117 49.5958 62.2479 49.7614 62.3242C49.927 62.4005 50.1175 62.4103 50.2909 62.352C50.4643 62.2937 50.6064 62.172 50.686 62.0132L52.2756 58.8465C52.3302 58.742 52.355 58.6256 52.3475 58.509C52.3401 58.3923 52.3006 58.2794 52.2331 58.1821C52.1656 58.0848 52.0725 58.0065 51.9632 57.9547C51.8538 57.903 51.7322 57.8799 51.6106 57.8877Z" fill="#1188EE"/>
</svg>
